<svg role="img" class="bi bi-tryhackme" width="1em" height="1em" viewBox="0 0 552 564" fill="currentColor" xmlns="http://www.w3.org/2000/svg">
    <path d="M228 1a152 152 0 00-116 81c-6 10-14 32-14 37 0 3-1 4-9 5-23 5-42 15-58 32-13 14-21 27-26 44a107 107 0 0077 134l10 3h90c85 0 91 0 94-2 10-5 11-19 1-26-3-2-4-2-94-3H92l-8-4a78 78 0 01-53-68 77 77 0 0197-78c8 2 16 6 25 11 8 5 17 3 22-4 3-4 3-11 0-16-5-8-22-16-46-23l1-5c12-42 45-73 87-85 9-2 11-2 30-2 18 0 20 0 29 2 45 12 80 48 90 93 1 6 1 7-1 7l-8 6-8 6c-3 5-3 14 1 19 7 7 14 7 24 0 22-14 51-15 75-4 21 10 35 27 41 50 3 10 6 14 12 16 7 2 15-1 18-9 3-5 2-8-2-21-10-30-32-54-61-66-14-6-21-7-42-8h-19l-1-5-5-15A153 153 0 00228 1z"/>
    <path d="M361 250c-5 2-10 8-11 14-2 7-2 26 0 33 3 10 10 16 20 16 14 0 20-9 21-28 1-18-4-30-12-34-5-2-14-2-19-1zm10 10c5 2 6 6 6 21 1 12 0 14-2 17-1 3-2 4-5 4-4 0-5-1-6-3-2-3-3-5-3-17 0-18 1-21 8-23l2 1zM512 251c-3 2-5 4-7 8-7 13-6 38 2 47 5 7 16 9 25 5 7-3 11-11 12-26s-3-28-11-33c-5-4-15-4-21-1zm15 10c2 2 4 9 4 20-1 14-2 20-6 21s-7 0-9-3c-3-5-3-31 0-36 3-4 7-4 11-2zM310 257l-9 8c-1 1 4 8 5 8l6-4 5-4v47h14v-62h-6c-6 0-6 0-15 7zM464 257c-12 9-12 8-9 12l4 4 6-4 6-5-1 24v24h13v-62h-5c-5 0-6 0-14 7zM463 344c-9 3-14 10-15 26-1 8 0 21 3 27 4 8 14 13 24 10 6-2 11-6 14-13 2-7 2-29 0-36-5-12-15-17-27-14zm9 11c3 2 5 7 6 15 1 15-2 26-8 27-7 0-9-6-9-21 0-12 1-18 4-21h7zM310 352l-10 9 6 7 6-4 5-5v48h14v-63h-6c-5 0-5 0-15 8zM360 352l-10 9 3 4 3 3 6-4 5-5v48h13v-63h-5c-5 0-5 0-15 8zM413 350l-11 8-3 2 4 4 3 4 6-4 5-5v48h13v-63h-5c-5 0-6 1-12 6zM497 428c-7 4-9 11-9 25 1 7 1 10 3 13 5 10 19 11 25 1 2-3 3-5 3-15s0-12-2-16l-5-6c-3-3-11-3-15-2zm11 10c1 2 2 4 2 12 0 9-1 11-2 13-2 4-6 4-8 1-4-6-3-26 1-28 3-2 5-1 7 2zM307 429c-4 0-8 6-9 11-2 8-1 22 2 26 3 6 8 8 13 8 11-1 14-7 14-23 0-11-2-17-6-20-3-2-10-3-14-2zm10 10l1 12c0 13-2 16-7 15-4-1-5-7-5-18 0-6 1-9 2-10 3-3 7-3 9 1zM377 430l-6 5c-2 4-2 6-2 16 0 13 1 17 7 21 3 2 4 2 8 2 11-1 14-7 15-23 0-15-4-22-14-23l-8 1zm11 9l1 12-1 12c-2 3-6 4-9 1l-1-13 1-13c3-3 7-2 9 1zM533 434l-7 6 2 3c2 2 4 2 7-2l3-2v34h10v-45h-4c-4 0-5 1-11 6zM341 435c-7 5-7 6-4 9 1 2 2 2 5-1l4-3v33h10v-44h-4c-4 0-5 1-11 6zM412 435c-7 5-7 6-4 9 1 2 2 2 5-1l4-3v33h10v-44h-4c-4 0-5 1-11 6zM456 482c-5 4-6 9-6 21 1 16 5 21 16 21 10 0 15-7 14-23 0-9-2-16-6-20-3-1-4-2-9-2s-6 1-9 3zm13 6c1 2 2 4 2 14 0 9-1 11-2 13-3 3-5 3-8 0l-1-14 1-13 4-2 4 2zM494 485l-7 6 2 3 2 3 4-4 4-3v34h10v-44l-4-1c-3 0-5 1-11 6zM527 482c-5 4-6 9-6 21 1 16 5 21 16 21 5 0 6 0 9-4 3-3 4-4 5-11 2-12 0-23-6-27-4-4-13-4-18 0zm13 6c1 2 2 4 2 14 0 9-1 11-2 13-3 3-5 3-8 0-1-2-2-4-2-14l2-13 4-2 4 2zM302 493c-7 3-8 22-2 28 5 5 15 3 17-3s1-18-1-22c-3-5-9-6-14-3zm8 5c2 2 2 11 1 16s-4 6-6 3c-2-2-3-13-1-17 1-3 4-4 6-2zM328 496c-5 4-5 4-3 6 1 2 1 2 3 0l3-2 1 12v12h7v-32h-3c-2 0-5 1-8 4zM391 532c-3 1-5 6-6 13 0 7 1 14 4 17l6 2c8 1 12-5 12-17s-6-19-16-15zm8 7c1 1 2 13 1 17-1 3-4 3-6 1-2-1-2-3-2-9l1-9c1-2 4-3 6 0zM417 536c-5 4-5 4-4 6 2 2 2 2 5-1l3-2v25h6v-32h-3c-2 0-4 1-7 4z"/>
</svg>